PathFileType	4	(X/Y/Z)	Patient4_TMGait_0pt6_01_left_44.trc.trc
DataRate	CameraRate	NumFrames	NumMarkers	Units	OrigDataRate	OrigDataStartFrame	OrigNumFrames
82.840236686391	82.840236686391	4	33	mm	82.840236686391	18	       141
Frame#	Time	Sacral			L.Shoulder			Chest			R.Shoulder			Neck			R.ASIS			L.ASIS			R.Thigh.Superior			R.Thigh.Lateral			R.Thigh.Inferior			R.Patella			L.Thigh.Superior			L.Thigh.Lateral			L.Thigh.Inferior			L.Patella			L.Shank.Superior			L.Shank.Lateral			L.Shank.Inferior			R.Shank.Superior			R.Shank.Lateral			R.Shank.Inferior			R.Heel			R.Midfoot.Superior			R.Midfoot.Lateral			R.Toe			L.Heel			L.Midfoot.Lateral			L.Midfoot.Superior			L.Toe			L.Elbow			L.Wrist			R.Elbow			R.Wrist			
		X1	Y1	Z1	X2	Y2	Z2	X3	Y3	Z3	X4	Y4	Z4	X5	Y5	Z5	X6	Y6	Z6	X7	Y7	Z7	X8	Y8	Z8	X9	Y9	Z9	X10	Y10	Z10	X11	Y11	Z11	X12	Y12	Z12	X13	Y13	Z13	X14	Y14	Z14	X15	Y15	Z15	X16	Y16	Z16	X17	Y17	Z17	X18	Y18	Z18	X19	Y19	Z19	X20	Y20	Z20	X21	Y21	Z21	X22	Y22	Z22	X23	Y23	Z23	X24	Y24	Z24	X25	Y25	Z25	X26	Y26	Z26	X27	Y27	Z27	X28	Y28	Z28	X29	Y29	Z29	X30	Y30	Z30	X31	Y31	Z31	X32	Y32	Z32	X33	Y33	Z33	

18	53.705214285714	776.272551495445	1008.465750030582	509.192382270057	937.234211002463	1432.691671112102	306.054604529642	1059.464285764688	1358.710693911379	450.958467005243	1002.995101508436	1434.200703465471	633.114918731460	936.110541175458	1490.138027262610	458.550368107548	1009.652517292011	937.790758813911	600.359530067723	969.021581364853	957.624987963235	329.081767979357	1015.419657457424	726.283249755399	568.599028221342	920.174317526462	627.691664288366	632.298723798396	979.184257392246	567.508768138497	546.710340924515	963.726262113771	481.493046317842	550.006600448642	1047.753284406860	776.513842823350	358.496645755929	1005.843065826197	649.603277690262	278.936773861877	1110.316128607507	594.390909398183	344.049489987469	1141.355079471657	532.720276612381	339.623039099840	1129.471675479637	460.624386976022	328.169604549757	1073.416798837936	326.590396755252	276.136913089761	1168.014846759920	233.948555158094	330.659870916348	928.255522581071	395.315917992428	555.461420075467	848.687397322077	297.338704250163	616.416018060611	877.217039272451	201.479066962264	548.757077164146	727.880395443302	42.657767173899	519.420620441526	900.889580574327	96.100292340287	550.595061259887	812.863910040753	36.719630759796	592.075022682175	1021.358079999465	40.488275147300	575.850008453112	1097.087947276260	48.090708560045	367.747387179444	1172.824660711742	57.045496024172	289.756222354785	1237.444772062545	139.916673168121	310.364244545967	1373.835399345612	118.541168328213	289.587209628177	873.573923912357	1078.858435966951	206.087710912153	955.542925196605	831.054864416392	194.753135456823	1096.183964774825	1105.585330577913	751.330197576663	1319.849048336119	1160.755147326860	653.789702608405	
19	53.717285714286	776.282170233179	1006.907871321758	508.385152883507	934.069308652221	1432.144712410124	305.221100223617	1057.132330577158	1358.461833878577	449.604746103045	1000.854062285931	1433.230531221096	632.025852784017	933.488580733581	1489.261504810234	457.795978312567	1009.977482563967	937.028950640947	599.118400674372	968.878331737052	956.584910246933	327.813391593457	1014.290686111907	724.946006050837	567.659734963728	918.190146647836	626.856866343310	631.526638432772	976.511695868823	566.221087532283	545.979468563035	960.236861873593	480.182812834289	549.173715703252	1048.197109478283	775.283314659546	357.500438702734	1004.774023435345	647.515086455223	279.347544813795	1109.892363222467	592.589161000257	343.025954792539	1139.987030901888	530.056379075102	339.389097206137	1127.202057797373	457.546077471305	328.438431324444	1068.870129314578	324.620603093362	276.787830835879	1161.580227067556	230.638129072679	331.523247542650	923.978710372062	394.236999983773	554.891114519467	843.677391882851	296.980865208957	616.148386458476	871.020311502064	200.845629659022	548.467178305734	720.527637514684	42.561390986525	519.468509326678	893.574064590941	96.018445121742	550.570434499274	805.494658581109	36.653237085844	592.145722875554	1013.997836631324	40.535449461462	575.862128807144	1087.368481667084	46.929551799385	368.864351646885	1162.997665876178	54.306022534051	290.727266467503	1229.319160822036	135.470192730297	311.388890070756	1364.949495948930	111.156874614383	290.304327052312	870.676089472161	1078.625054910930	204.941024694266	954.532281092560	831.220965885992	194.519140378350	1103.148369734247	1106.881299424847	746.988577708968	1322.882228384905	1172.642667959221	647.551402150070	
20	53.729357142857	776.502354772828	1005.285222783990	507.366208721338	930.896852744704	1431.446355532897	304.233503385989	1054.826474158469	1358.227453028398	448.130201265502	998.658575359998	1432.269917732141	630.797915068436	930.877082777932	1488.313572225240	456.896702259644	1010.464524810547	936.213510552647	597.856957594258	969.119666264653	955.498254634284	326.496217341512	1013.273654541779	723.531214590853	566.688846197392	916.260045401840	625.984680851522	630.680142204759	973.942357263425	564.856216825598	545.218948343916	956.822726405129	478.802949240022	548.283441844336	1049.351074919147	774.112194169321	356.590749838364	1004.261541918649	645.425152469240	279.946687818085	1109.979731223797	590.665260485602	342.174204722248	1138.864239190401	526.952687273307	339.428431309385	1124.801159148569	453.964250689649	328.958150159192	1063.465106484607	322.565772869876	277.439751828116	1153.521803366017	226.645886264745	332.570437089603	919.767699365426	393.121451379522	554.263993814748	838.724432883965	296.631859889634	615.860114122020	864.850539574971	200.208509576069	548.157337692367	713.187805164631	42.481210853863	519.524748642549	886.274328788044	95.935402087044	550.541451228221	798.136172328034	36.586102644866	592.203904652560	1006.643899915203	40.554871416869	575.885856196433	1074.819583531973	45.580589164221	369.738716336789	1150.515626044811	51.149547757531	291.588386940083	1218.921743744031	130.142859073024	312.676248748555	1353.711406054454	102.210535579034	291.439154099541	867.984519945784	1078.148036961516	203.771815139701	953.348233314549	831.058687782746	194.257450747473	1109.818448478663	1108.470418149932	742.620703160396	1325.373122478311	1184.190655110748	641.567036569809	
21	53.741428571429	776.904860079619	1003.630757312461	506.126078906399	927.777795485744	1430.596953088117	303.089592136026	1052.592316114568	1358.000166009005	446.539315273601	996.457396922906	1431.330375202303	629.433886150200	928.327413626005	1487.311180898206	455.844461251651	1011.091832417900	935.335417396926	596.563394104877	969.708633504764	954.386264053185	325.135225062677	1012.390235784442	722.054641980991	565.681519833117	914.411294050479	625.083018311127	629.737613341902	971.521459029503	563.426371760212	544.411304863563	953.530894399473	477.351288910615	547.316038543289	1051.040174936382	772.905369621002	355.766608105964	1004.188802936725	643.367626112963	280.625379480082	1110.373459416125	588.593171900154	341.550053985523	1137.834429273056	523.492215030075	339.732901372561	1122.252518998045	450.028215291491	329.661927500638	1057.486070011935	320.435366954995	278.048824771579	1144.362476470861	222.212879141150	333.750769851232	915.658368729752	391.972210596200	553.558133439316	833.854358868234	296.311018828919	615.540764721778	858.723129889346	199.580887259317	547.822845534100	705.865288541547	42.445636035143	519.595516533002	878.998790236317	95.857746157253	550.509690649511	790.797243973040	36.528532520202	592.246995913648	999.304343570581	40.531791080116	575.922368088124	1060.400057957857	44.108067247349	370.374228058579	1136.307357890860	47.804926937614	292.324287546063	1206.982147727042	124.327314474566	314.179841758504	1340.908711809173	92.416920743381	292.930958160255	865.491510222455	1077.420527270145	202.612135180055	951.918338706642	830.534419212252	193.967672724573	1116.166419455840	1110.323774710442	738.289905682863	1327.349638716692	1195.363366393812	635.867162535757	
